<svg width="9" height="14" viewBox="0 0 9 14" fill="none" xmlns="http://www.w3.org/2000/svg">
<path d="M4.05682 13.6328V0.905561H4.87216V13.6328H4.05682ZM6.80114 4.72374C6.74148 4.21996 6.49953 3.82886 6.07528 3.55045C5.65104 3.27204 5.13068 3.13283 4.5142 3.13283C4.06345 3.13283 3.66903 3.20575 3.33097 3.35158C2.99621 3.49742 2.73438 3.69794 2.54545 3.95315C2.35985 4.20836 2.26705 4.49836 2.26705 4.82318C2.26705 5.09496 2.33168 5.32862 2.46094 5.52417C2.59351 5.7164 2.76255 5.87715 2.96804 6.00641C3.17353 6.13236 3.38897 6.23676 3.61435 6.31962C3.83973 6.39917 4.04688 6.4638 4.2358 6.51352L5.26989 6.79193C5.53504 6.86153 5.83002 6.95765 6.15483 7.08028C6.48295 7.20291 6.79616 7.37029 7.09446 7.58241C7.39607 7.79122 7.64465 8.05968 7.8402 8.38781C8.03575 8.71593 8.13352 9.11863 8.13352 9.5959C8.13352 10.1461 7.98935 10.6433 7.70099 11.0874C7.41596 11.5315 6.99834 11.8845 6.44815 12.1463C5.90128 12.4082 5.23674 12.5391 4.45455 12.5391C3.72538 12.5391 3.09399 12.4214 2.56037 12.1861C2.03007 11.9508 1.61245 11.6227 1.30753 11.2017C1.00592 10.7808 0.835227 10.2919 0.795455 9.73511H2.06818C2.10133 10.1196 2.23059 10.4378 2.45597 10.6897C2.68466 10.9382 2.97301 11.1238 3.32102 11.2465C3.67235 11.3658 4.05019 11.4254 4.45455 11.4254C4.92519 11.4254 5.34777 11.3492 5.7223 11.1968C6.09683 11.041 6.39347 10.8255 6.61222 10.5504C6.83097 10.272 6.94034 9.94723 6.94034 9.57602C6.94034 9.23795 6.84588 8.96285 6.65696 8.75073C6.46804 8.53861 6.21946 8.36626 5.91122 8.23369C5.60298 8.10111 5.26989 7.98511 4.91193 7.88568L3.65909 7.52772C2.86364 7.29903 2.2339 6.97256 1.76989 6.54832C1.30587 6.12408 1.07386 5.56891 1.07386 4.88283C1.07386 4.31276 1.22798 3.8156 1.53622 3.39136C1.84777 2.9638 2.26539 2.63236 2.78906 2.39704C3.31605 2.1584 3.90436 2.03908 4.55398 2.03908C5.21023 2.03908 5.79356 2.15675 6.30398 2.39207C6.81439 2.62407 7.21875 2.94226 7.51705 3.34661C7.81866 3.75097 7.97775 4.21001 7.99432 4.72374H6.80114Z" fill="#6C6C70"/>
</svg>
