<svg width="34" height="21" viewBox="0 0 34 21" fill="none" xmlns="http://www.w3.org/2000/svg">
<path d="M18.4527 18.9762L18.4526 18.9762L18.457 18.9719L31.9577 5.62862C32.1836 5.38643 32.3599 5.10227 32.4766 4.79219C32.5945 4.47881 32.6492 4.14518 32.6374 3.81057C32.6256 3.47596 32.5476 3.147 32.408 2.8427C32.2683 2.53839 32.0697 2.26478 31.8237 2.03766L31.8156 2.03019L31.8078 2.02243C31.571 1.78755 31.2902 1.60172 30.9814 1.47561C30.6726 1.34949 30.342 1.28556 30.0085 1.28749L30.0075 1.2875C29.3432 1.2903 28.7065 1.55384 28.2346 2.02135C28.2343 2.02171 28.2339 2.02207 28.2335 2.02243L17.088 13.168L16.6533 13.6026L16.2187 13.168L5.07265 2.02195C5.07245 2.02175 5.07225 2.02155 5.07204 2.02135C4.59728 1.54972 3.95523 1.28501 3.286 1.28501C2.61648 1.28501 1.97416 1.54994 1.49934 2.02195L1.49885 2.02244C1.26132 2.25803 1.07278 2.53833 0.944119 2.84715C0.815458 3.15597 0.749217 3.48722 0.749217 3.82177C0.749217 4.15632 0.815458 4.48757 0.944119 4.79639C1.07278 5.10521 1.26132 5.3855 1.49885 5.62109L1.50063 5.62288L14.8522 18.9745L14.854 18.9762C15.0896 19.2138 15.3699 19.4023 15.6787 19.531C15.9875 19.6596 16.3188 19.7259 16.6533 19.7259C16.9879 19.7259 17.3191 19.6596 17.628 19.531C17.9368 19.4023 18.2171 19.2138 18.4527 18.9762Z" fill="black" stroke="white" stroke-width="1.22939"/>
</svg>
