<svg width="20" height="21" viewBox="0 0 20 21" fill="none" xmlns="http://www.w3.org/2000/svg">
<path d="M9.14168 7.24769C8.9671 7.36771 8.82714 7.53152 8.73584 7.72269C8.65839 7.86489 8.52876 7.97148 8.37428 8.02001C8.21979 8.06853 8.0525 8.05521 7.90764 7.98283C7.76278 7.91046 7.65167 7.78469 7.59771 7.63201C7.54374 7.47934 7.55114 7.31168 7.61834 7.16436C7.78501 6.82936 8.04584 6.47602 8.44918 6.20769C8.85584 5.93519 9.37001 5.77686 10 5.77686C10.5483 5.77686 11.1408 5.93936 11.6117 6.29269C11.8742 6.48457 12.087 6.73638 12.2326 7.02714C12.3781 7.31791 12.4521 7.63923 12.4483 7.96436C12.4483 8.82519 12.0208 9.39769 11.5925 9.81019C11.4342 9.96269 11.26 10.1085 11.11 10.2335L10.9875 10.336C10.859 10.4412 10.7379 10.555 10.625 10.6769V11.8185C10.625 11.9843 10.5592 12.1433 10.442 12.2605C10.3247 12.3777 10.1658 12.4435 10 12.4435C9.83425 12.4435 9.67528 12.3777 9.55807 12.2605C9.44086 12.1433 9.37501 11.9843 9.37501 11.8185V10.591C9.37501 10.3935 9.43084 10.171 9.58084 9.97769C9.76418 9.74436 9.98584 9.54686 10.1792 9.38269L10.3317 9.25519L10.3325 9.25436C10.4758 9.13519 10.6025 9.02936 10.7242 8.91102C11.0308 8.61519 11.1983 8.34769 11.1983 7.96436C11.202 7.83331 11.1732 7.70339 11.1145 7.58619C11.0557 7.46899 10.9689 7.36816 10.8617 7.29269C10.6383 7.12519 10.32 7.02686 10 7.02686C9.58834 7.02686 9.32168 7.12769 9.14168 7.24769ZM10.8333 14.5269C10.8333 14.7479 10.7455 14.9598 10.5893 15.1161C10.433 15.2724 10.221 15.3602 10 15.3602C9.779 15.3602 9.56704 15.2724 9.41075 15.1161C9.25447 14.9598 9.16668 14.7479 9.16668 14.5269C9.16668 14.3058 9.25447 14.0939 9.41075 13.9376C9.56704 13.7813 9.779 13.6935 10 13.6935C10.221 13.6935 10.433 13.7813 10.5893 13.9376C10.7455 14.0939 10.8333 14.3058 10.8333 14.5269Z" fill="#496495" stroke="#496495" stroke-width="0.3"/>
<path d="M10 1.19336C15.0625 1.19336 19.1667 5.29753 19.1667 10.36C19.1667 15.4225 15.0625 19.5267 10 19.5267C4.93751 19.5267 0.833344 15.4225 0.833344 10.36C0.833344 5.29753 4.93751 1.19336 10 1.19336ZM2.08334 10.36C2.08334 12.4597 2.91742 14.4733 4.40208 15.958C5.88674 17.4426 7.90038 18.2767 10 18.2767C12.0996 18.2767 14.1133 17.4426 15.5979 15.958C17.0826 14.4733 17.9167 12.4597 17.9167 10.36C17.9167 8.2604 17.0826 6.24676 15.5979 4.7621C14.1133 3.27743 12.0996 2.44336 10 2.44336C7.90038 2.44336 5.88674 3.27743 4.40208 4.7621C2.91742 6.24676 2.08334 8.2604 2.08334 10.36Z" fill="#496495" stroke="#496495" stroke-width="0.3"/>
</svg>
