<svg width="10" height="11" viewBox="0 0 10 11" fill="none" xmlns="http://www.w3.org/2000/svg">
<path d="M5.24432 8.45102V7.91408C5.24432 7.54287 5.32055 7.20315 5.47301 6.89491C5.62879 6.58336 5.85417 6.33478 6.14915 6.14917C6.44744 5.96025 6.80871 5.86579 7.23295 5.86579C7.66383 5.86579 8.0251 5.96025 8.31676 6.14917C8.60843 6.33478 8.82884 6.58336 8.97798 6.89491C9.12713 7.20315 9.2017 7.54287 9.2017 7.91408V8.45102C9.2017 8.82223 9.12547 9.16361 8.97301 9.47516C8.82386 9.7834 8.6018 10.032 8.30682 10.2209C8.01515 10.4065 7.6572 10.4993 7.23295 10.4993C6.80208 10.4993 6.43916 10.4065 6.14418 10.2209C5.8492 10.032 5.62547 9.7834 5.47301 9.47516C5.32055 9.16361 5.24432 8.82223 5.24432 8.45102ZM6.25852 7.91408V8.45102C6.25852 8.75926 6.33144 9.03601 6.47727 9.28127C6.62311 9.52322 6.875 9.6442 7.23295 9.6442C7.58097 9.6442 7.82623 9.52322 7.96875 9.28127C8.11458 9.03601 8.1875 8.75926 8.1875 8.45102V7.91408C8.1875 7.60585 8.1179 7.33075 7.97869 7.0888C7.83949 6.84354 7.59091 6.7209 7.23295 6.7209C6.88494 6.7209 6.63471 6.84354 6.48224 7.0888C6.3331 7.33075 6.25852 7.60585 6.25852 7.91408ZM0.173295 2.62431V2.08738C0.173295 1.71617 0.249527 1.37644 0.401989 1.0682C0.557765 0.756651 0.783144 0.508071 1.07812 0.322465C1.37642 0.133545 1.73769 0.0390843 2.16193 0.0390843C2.5928 0.0390843 2.95407 0.133545 3.24574 0.322465C3.53741 0.508071 3.75781 0.756651 3.90696 1.0682C4.05611 1.37644 4.13068 1.71617 4.13068 2.08738V2.62431C4.13068 2.99552 4.05445 3.33691 3.90199 3.64846C3.75284 3.9567 3.53078 4.20528 3.2358 4.3942C2.94413 4.5798 2.58617 4.67261 2.16193 4.67261C1.73106 4.67261 1.36813 4.5798 1.07315 4.3942C0.778172 4.20528 0.554451 3.9567 0.401989 3.64846C0.249527 3.33691 0.173295 2.99552 0.173295 2.62431ZM1.1875 2.08738V2.62431C1.1875 2.93255 1.26042 3.2093 1.40625 3.45457C1.55208 3.69652 1.80398 3.81749 2.16193 3.81749C2.50994 3.81749 2.75521 3.69652 2.89773 3.45457C3.04356 3.2093 3.11648 2.93255 3.11648 2.62431V2.08738C3.11648 1.77914 3.04688 1.50405 2.90767 1.2621C2.76847 1.01683 2.51989 0.894198 2.16193 0.894198C1.81392 0.894198 1.56368 1.01683 1.41122 1.2621C1.26207 1.50405 1.1875 1.77914 1.1875 2.08738ZM0.551136 10.3601L7.55114 0.178289H8.68466L1.68466 10.3601H0.551136Z" fill="#6C6C70"/>
</svg>
