<svg xmlns="http://www.w3.org/2000/svg" xmlns:xlink="http://www.w3.org/1999/xlink" width="120" zoomAndPan="magnify" viewBox="0 0 90 33.749998" height="45" preserveAspectRatio="xMidYMid meet" version="1.0"><defs><g/><clipPath id="207b61d11a"><path d="M 0.332031 0 L 89.667969 0 L 89.667969 33.5 L 0.332031 33.5 Z M 0.332031 0 " clip-rule="nonzero"/></clipPath></defs><g clip-path="url(#207b61d11a)"><path fill="#ffffff" d="M 0.332031 0 L 89.667969 0 L 89.667969 33.5 L 0.332031 33.5 Z M 0.332031 0 " fill-opacity="1" fill-rule="nonzero"/><path fill="#ffffff" d="M 0.332031 0 L 89.667969 0 L 89.667969 33.5 L 0.332031 33.5 Z M 0.332031 0 " fill-opacity="1" fill-rule="nonzero"/></g><g fill="#ffffff" fill-opacity="1"><g transform="translate(3.178459, 24.007679)"><g><path d="M 18.703125 -14.46875 L 16.15625 0 L 13.234375 0 L 14.890625 -9.375 L 9.375 0 L 7.15625 0 L 4.9375 -9.390625 L 3.28125 0 L 0.359375 0 L 2.921875 -14.46875 L 6.21875 -14.46875 L 8.9375 -3.734375 L 15.40625 -14.46875 Z M 18.703125 -14.46875 "/></g></g></g><g fill="#ffffff" fill-opacity="1"><g transform="translate(21.817953, 24.007679)"><g><path d="M 5.5 0.1875 C 4.507812 0.1875 3.640625 -0.0078125 2.890625 -0.40625 C 2.140625 -0.8125 1.554688 -1.378906 1.140625 -2.109375 C 0.722656 -2.847656 0.515625 -3.691406 0.515625 -4.640625 C 0.515625 -5.941406 0.820312 -7.128906 1.4375 -8.203125 C 2.050781 -9.273438 2.894531 -10.117188 3.96875 -10.734375 C 5.039062 -11.359375 6.234375 -11.671875 7.546875 -11.671875 C 8.523438 -11.671875 9.398438 -11.46875 10.171875 -11.0625 C 10.941406 -10.65625 11.535156 -10.082031 11.953125 -9.34375 C 12.367188 -8.613281 12.578125 -7.773438 12.578125 -6.828125 C 12.578125 -5.515625 12.265625 -4.320312 11.640625 -3.25 C 11.023438 -2.1875 10.175781 -1.347656 9.09375 -0.734375 C 8.007812 -0.117188 6.8125 0.1875 5.5 0.1875 Z M 5.890625 -2.296875 C 6.578125 -2.296875 7.203125 -2.492188 7.765625 -2.890625 C 8.335938 -3.296875 8.78125 -3.832031 9.09375 -4.5 C 9.414062 -5.164062 9.578125 -5.863281 9.578125 -6.59375 C 9.578125 -7.425781 9.34375 -8.066406 8.875 -8.515625 C 8.414062 -8.960938 7.832031 -9.1875 7.125 -9.1875 C 6.425781 -9.1875 5.800781 -8.984375 5.25 -8.578125 C 4.707031 -8.179688 4.285156 -7.644531 3.984375 -6.96875 C 3.679688 -6.300781 3.53125 -5.597656 3.53125 -4.859375 C 3.53125 -4.035156 3.742188 -3.398438 4.171875 -2.953125 C 4.609375 -2.515625 5.179688 -2.296875 5.890625 -2.296875 Z M 5.890625 -2.296875 "/></g></g></g><g fill="#ffffff" fill-opacity="1"><g transform="translate(35.045979, 24.007679)"><g><path d="M 8.765625 -11.65625 C 9.953125 -11.65625 10.890625 -11.332031 11.578125 -10.6875 C 12.265625 -10.039062 12.609375 -9.125 12.609375 -7.9375 C 12.609375 -7.5 12.570312 -7.097656 12.5 -6.734375 L 11.296875 0 L 8.421875 0 L 9.53125 -6.34375 C 9.570312 -6.59375 9.59375 -6.835938 9.59375 -7.078125 C 9.59375 -7.765625 9.410156 -8.285156 9.046875 -8.640625 C 8.679688 -9.003906 8.160156 -9.1875 7.484375 -9.1875 C 6.710938 -9.1875 6.050781 -8.953125 5.5 -8.484375 C 4.957031 -8.023438 4.597656 -7.359375 4.421875 -6.484375 L 3.28125 0 L 0.359375 0 L 2.390625 -11.484375 L 5.3125 -11.484375 L 5.0625 -10.078125 C 5.53125 -10.554688 6.085938 -10.9375 6.734375 -11.21875 C 7.390625 -11.507812 8.066406 -11.65625 8.765625 -11.65625 Z M 8.765625 -11.65625 "/></g></g></g><g fill="#ffffff" fill-opacity="1"><g transform="translate(48.750877, 24.007679)"><g><path d="M 5.625 -2.671875 L 10.078125 -11.484375 L 13.203125 -11.484375 L 6.921875 0 L 3.359375 0 L 1.15625 -11.484375 L 4.265625 -11.484375 Z M 5.625 -2.671875 "/></g></g></g><g fill="#ffffff" fill-opacity="1"><g transform="translate(61.170293, 24.007679)"><g><path d="M 5.625 -2.671875 L 10.078125 -11.484375 L 13.203125 -11.484375 L 6.921875 0 L 3.359375 0 L 1.15625 -11.484375 L 4.265625 -11.484375 Z M 5.625 -2.671875 "/></g></g></g><g fill="#ffffff" fill-opacity="1"><g transform="translate(73.589714, 24.007679)"><g><path d="M 5.5 0.1875 C 4.507812 0.1875 3.640625 -0.0078125 2.890625 -0.40625 C 2.140625 -0.8125 1.554688 -1.378906 1.140625 -2.109375 C 0.722656 -2.847656 0.515625 -3.691406 0.515625 -4.640625 C 0.515625 -5.941406 0.820312 -7.128906 1.4375 -8.203125 C 2.050781 -9.273438 2.894531 -10.117188 3.96875 -10.734375 C 5.039062 -11.359375 6.234375 -11.671875 7.546875 -11.671875 C 8.523438 -11.671875 9.398438 -11.46875 10.171875 -11.0625 C 10.941406 -10.65625 11.535156 -10.082031 11.953125 -9.34375 C 12.367188 -8.613281 12.578125 -7.773438 12.578125 -6.828125 C 12.578125 -5.515625 12.265625 -4.320312 11.640625 -3.25 C 11.023438 -2.1875 10.175781 -1.347656 9.09375 -0.734375 C 8.007812 -0.117188 6.8125 0.1875 5.5 0.1875 Z M 5.890625 -2.296875 C 6.578125 -2.296875 7.203125 -2.492188 7.765625 -2.890625 C 8.335938 -3.296875 8.78125 -3.832031 9.09375 -4.5 C 9.414062 -5.164062 9.578125 -5.863281 9.578125 -6.59375 C 9.578125 -7.425781 9.34375 -8.066406 8.875 -8.515625 C 8.414062 -8.960938 7.832031 -9.1875 7.125 -9.1875 C 6.425781 -9.1875 5.800781 -8.984375 5.25 -8.578125 C 4.707031 -8.179688 4.285156 -7.644531 3.984375 -6.96875 C 3.679688 -6.300781 3.53125 -5.597656 3.53125 -4.859375 C 3.53125 -4.035156 3.742188 -3.398438 4.171875 -2.953125 C 4.609375 -2.515625 5.179688 -2.296875 5.890625 -2.296875 Z M 5.890625 -2.296875 "/></g></g></g></svg>