<svg width="86" height="16" viewBox="0 0 86 16" fill="none" xmlns="http://www.w3.org/2000/svg">
<path d="M19.4943 0.101562L16.8591 15.0682H13.8322L15.5498 5.37204L9.84855 15.0682H7.54901L5.25507 5.35525L3.543 15.0682H0.516113L3.17373 0.101562H6.58667L9.39536 11.2076L16.087 0.101562H19.4943Z" fill="#175134"/>
<path d="M19.4943 0.101562L16.8591 15.0682H13.8322L15.5498 5.37204L9.84855 15.0682H7.54901L5.25507 5.35525L3.543 15.0682H0.516113L3.17373 0.101562H6.58667L9.39536 11.2076L16.087 0.101562H19.4943Z" fill="#175134"/>
<path d="M25.1163 15.2583C24.1008 15.2583 23.2042 15.0513 22.4251 14.6373C21.6446 14.2233 21.0404 13.6386 20.6124 12.8805C20.1829 12.1238 19.9689 11.2509 19.9689 10.262C19.9689 8.91923 20.285 7.69393 20.9201 6.58612C21.5579 5.47831 22.4307 4.6041 23.5385 3.96207C24.6463 3.31725 25.8786 2.99414 27.2368 2.99414C28.2509 2.99414 29.1559 3.20535 29.9504 3.62637C30.7449 4.0488 31.3603 4.63767 31.7967 5.39439C32.2331 6.15251 32.4513 7.02533 32.4513 8.01284C32.4513 9.37103 32.1282 10.6005 31.4834 11.6999C30.8414 12.8008 29.9588 13.6694 28.837 14.3072C27.7138 14.9422 26.4731 15.2583 25.1163 15.2583ZM25.5248 12.6903C26.2367 12.6903 26.8857 12.4832 27.4718 12.0692C28.0607 11.6524 28.5195 11.0999 28.8482 10.4131C29.1755 9.72771 29.3405 9.00595 29.3405 8.24783C29.3405 7.3904 29.0999 6.73019 28.6188 6.26721C28.1404 5.80142 27.5389 5.56783 26.8116 5.56783C26.0801 5.56783 25.431 5.77485 24.8645 6.18888C24.3009 6.60291 23.863 7.15681 23.5497 7.85059C23.2364 8.54437 23.0797 9.27731 23.0797 10.0494C23.0797 10.8929 23.3035 11.5433 23.7511 12.0021C24.2015 12.4609 24.7932 12.6903 25.5248 12.6903Z" fill="#175134"/>
<path d="M42.1833 3.0166C43.4142 3.0166 44.3822 3.3495 45.0871 4.01251C45.7949 4.67691 46.1502 5.62387 46.1502 6.85476C46.1502 7.31355 46.1138 7.72758 46.0439 8.09685L44.8018 15.0682H41.8197L42.9778 8.50528C43.0226 8.24791 43.045 7.99894 43.045 7.75555C43.045 7.0394 42.8547 6.49668 42.4743 6.12741C42.0966 5.75535 41.5581 5.56792 40.8573 5.56792C40.0544 5.56792 39.3705 5.8085 38.804 6.28967C38.2403 6.76804 37.8654 7.45622 37.6794 8.35422L36.5044 15.0682H33.4775L35.5813 3.19005H38.6025L38.3452 4.64474C38.8333 4.14539 39.4138 3.74954 40.0852 3.45861C40.7566 3.16487 41.456 3.0166 42.1833 3.0166Z" fill="#175134"/>
<path d="M53.1023 12.3042L57.7126 3.18994H60.9521L54.4507 15.0681H50.7636L48.4921 3.18994H51.7092L53.1023 12.3042Z" fill="#175134"/>
<path d="M65.9479 12.3042L70.5581 3.18994H73.7976L67.2962 15.0681H63.6091L61.3376 3.18994H64.5547L65.9479 12.3042Z" fill="#175134"/>
<path d="M78.665 15.2583C77.6495 15.2583 76.7529 15.0513 75.9738 14.6373C75.1933 14.2233 74.589 13.6386 74.161 12.8805C73.7316 12.1238 73.5176 11.2509 73.5176 10.262C73.5176 8.91923 73.8337 7.69393 74.4687 6.58612C75.1066 5.47831 75.9794 4.6041 77.0872 3.96207C78.195 3.31725 79.4273 2.99414 80.7855 2.99414C81.7996 2.99414 82.7045 3.20535 83.499 3.62637C84.2935 4.0488 84.909 4.63767 85.3454 5.39439C85.7818 6.15251 86 7.02533 86 8.01284C86 9.37103 85.6769 10.6005 85.0321 11.6999C84.39 12.8008 83.5074 13.6694 82.3856 14.3072C81.2624 14.9422 80.0217 15.2583 78.665 15.2583ZM79.0734 12.6903C79.7854 12.6903 80.4344 12.4832 81.0205 12.0692C81.6093 11.6524 82.0681 11.0999 82.3968 10.4131C82.7241 9.72771 82.8892 9.00595 82.8892 8.24783C82.8892 7.3904 82.6486 6.73019 82.1674 6.26721C81.6891 5.80142 81.0876 5.56783 80.3602 5.56783C79.6287 5.56783 78.9797 5.77485 78.4132 6.18888C77.8495 6.60291 77.4117 7.15681 77.0984 7.85059C76.785 8.54437 76.6284 9.27731 76.6284 10.0494C76.6284 10.8929 76.8522 11.5433 77.2998 12.0021C77.7502 12.4609 78.3419 12.6903 79.0734 12.6903Z" fill="#175134"/>
</svg>
