<svg width="106" height="16" viewBox="0 0 106 16" fill="none" xmlns="http://www.w3.org/2000/svg">
<path d="M6.10352e-05 7.67992C6.10352e-05 3.66685 3.25314 0.413818 7.26622 0.413818C11.2793 0.413818 14.5323 3.66685 14.5323 7.67992C14.5323 11.693 11.2793 14.9461 7.26622 14.9461V7.67992H6.10352e-05Z" fill="#175134"/>
<path d="M6.10352e-05 14.946V8.02588C3.82205 8.02588 6.92018 11.124 6.92018 14.946H6.10352e-05Z" fill="#3EB721"/>
<path d="M39.4943 0.101562L36.8591 15.0682H33.8322L35.5498 5.37204L29.8485 15.0682H27.549L25.2551 5.35525L23.543 15.0682H20.5161L23.1737 0.101562H26.5867L29.3954 11.2076L36.087 0.101562H39.4943Z" fill="#175134"/>
<path d="M39.4943 0.101562L36.8591 15.0682H33.8322L35.5498 5.37204L29.8485 15.0682H27.549L25.2551 5.35525L23.543 15.0682H20.5161L23.1737 0.101562H26.5867L29.3954 11.2076L36.087 0.101562H39.4943Z" fill="#175134"/>
<path d="M45.1163 15.2583C44.1008 15.2583 43.2042 15.0513 42.4251 14.6373C41.6446 14.2233 41.0404 13.6386 40.6124 12.8805C40.1829 12.1238 39.9689 11.2509 39.9689 10.262C39.9689 8.91923 40.285 7.69393 40.9201 6.58612C41.5579 5.47831 42.4307 4.6041 43.5385 3.96207C44.6463 3.31725 45.8786 2.99414 47.2368 2.99414C48.2509 2.99414 49.1559 3.20535 49.9504 3.62637C50.7449 4.0488 51.3603 4.63767 51.7967 5.39439C52.2331 6.15251 52.4513 7.02533 52.4513 8.01284C52.4513 9.37103 52.1282 10.6005 51.4834 11.6999C50.8414 12.8008 49.9588 13.6694 48.837 14.3072C47.7138 14.9422 46.4731 15.2583 45.1163 15.2583ZM45.5248 12.6903C46.2367 12.6903 46.8857 12.4832 47.4718 12.0692C48.0607 11.6524 48.5195 11.0999 48.8482 10.4131C49.1755 9.72771 49.3405 9.00595 49.3405 8.24783C49.3405 7.3904 49.0999 6.73019 48.6188 6.26721C48.1404 5.80142 47.5389 5.56783 46.8116 5.56783C46.0801 5.56783 45.431 5.77485 44.8645 6.18888C44.3009 6.60291 43.863 7.15681 43.5497 7.85059C43.2364 8.54437 43.0797 9.27731 43.0797 10.0494C43.0797 10.8929 43.3035 11.5433 43.7511 12.0021C44.2015 12.4609 44.7932 12.6903 45.5248 12.6903Z" fill="#175134"/>
<path d="M62.1833 3.0166C63.4142 3.0166 64.3822 3.3495 65.0871 4.01251C65.7949 4.67691 66.1502 5.62387 66.1502 6.85476C66.1502 7.31355 66.1138 7.72758 66.0439 8.09685L64.8018 15.0682H61.8197L62.9778 8.50528C63.0226 8.24791 63.045 7.99894 63.045 7.75555C63.045 7.0394 62.8547 6.49668 62.4743 6.12741C62.0966 5.75535 61.5581 5.56792 60.8573 5.56792C60.0544 5.56792 59.3705 5.8085 58.804 6.28967C58.2403 6.76804 57.8654 7.45622 57.6794 8.35422L56.5044 15.0682H53.4775L55.5813 3.19005H58.6025L58.3452 4.64474C58.8333 4.14539 59.4138 3.74954 60.0852 3.45861C60.7566 3.16487 61.456 3.0166 62.1833 3.0166Z" fill="#175134"/>
<path d="M73.1023 12.3042L77.7126 3.18994H80.9521L74.4507 15.0681H70.7636L68.4921 3.18994H71.7092L73.1023 12.3042Z" fill="#175134"/>
<path d="M85.9479 12.3042L90.5581 3.18994H93.7976L87.2962 15.0681H83.6091L81.3376 3.18994H84.5547L85.9479 12.3042Z" fill="#175134"/>
<path d="M98.665 15.2583C97.6495 15.2583 96.7529 15.0513 95.9738 14.6373C95.1933 14.2233 94.589 13.6386 94.161 12.8805C93.7316 12.1238 93.5176 11.2509 93.5176 10.262C93.5176 8.91923 93.8337 7.69393 94.4687 6.58612C95.1066 5.47831 95.9794 4.6041 97.0872 3.96207C98.195 3.31725 99.4273 2.99414 100.785 2.99414C101.8 2.99414 102.705 3.20535 103.499 3.62637C104.294 4.0488 104.909 4.63767 105.345 5.39439C105.782 6.15251 106 7.02533 106 8.01284C106 9.37103 105.677 10.6005 105.032 11.6999C104.39 12.8008 103.507 13.6694 102.386 14.3072C101.262 14.9422 100.022 15.2583 98.665 15.2583ZM99.0734 12.6903C99.7854 12.6903 100.434 12.4832 101.02 12.0692C101.609 11.6524 102.068 11.0999 102.397 10.4131C102.724 9.72771 102.889 9.00595 102.889 8.24783C102.889 7.3904 102.649 6.73019 102.167 6.26721C101.689 5.80142 101.088 5.56783 100.36 5.56783C99.6287 5.56783 98.9797 5.77485 98.4132 6.18888C97.8495 6.60291 97.4117 7.15681 97.0984 7.85059C96.785 8.54437 96.6284 9.27731 96.6284 10.0494C96.6284 10.8929 96.8522 11.5433 97.2998 12.0021C97.7502 12.4609 98.3419 12.6903 99.0734 12.6903Z" fill="#175134"/>
</svg>
