<svg width="1440" height="121" viewBox="0 0 1440 121" fill="none" xmlns="http://www.w3.org/2000/svg">
<g clip-path="url(#clip0_3_769)">
<path opacity="0.3" d="M722.468 647.928C1156.71 647.928 1508.73 511.819 1508.73 343.921C1508.73 176.023 1156.71 39.915 722.468 39.915C288.228 39.915 -63.7941 176.023 -63.7941 343.921C-63.7941 511.819 288.228 647.928 722.468 647.928Z" fill="#496495"/>
<path opacity="0.3" d="M1571.46 343.921C1571.46 525.13 1191.36 672.027 722.468 672.027C253.583 672.027 -126.525 525.13 -126.525 343.921C-126.525 162.713 253.583 15.8154 722.468 15.8154C1191.36 15.8154 1571.46 162.713 1571.46 343.921ZM-95.4073 343.921C-95.4073 518.488 270.768 660.002 722.468 660.002C1174.17 660.002 1540.34 518.488 1540.34 343.921C1540.34 169.355 1174.17 27.8413 722.468 27.8413C270.768 27.8413 -95.4073 169.355 -95.4073 343.921Z" fill="#496495"/>
<path opacity="0.3" d="M1637.38 353.963C1637.38 549.31 1227.76 707.674 722.468 707.674C217.175 707.674 -192.446 549.31 -192.446 353.963C-192.446 158.613 217.175 0.250977 722.468 0.250977C1227.76 0.250977 1637.38 158.613 1637.38 353.963ZM-183.296 353.963C-183.296 547.357 222.228 704.14 722.468 704.14C1222.71 704.14 1628.24 547.357 1628.24 353.963C1628.24 160.566 1222.71 3.78808 722.468 3.78808C222.228 3.78808 -183.296 160.566 -183.296 353.963Z" fill="#496495"/>
</g>
<defs>
<clipPath id="clip0_3_769">
<rect width="1446" height="121" fill="white"/>
</clipPath>
</defs>
</svg>
